<mxfile host="app.diagrams.net" modified="2024-02-06T17:33:29.254Z" agent="Mozilla/5.0 (X11; Linux x86_64; rv:103.0) Gecko/20100101 Firefox/103.0" etag="eW51Uj1DZYxtlfXQameJ" version="22.0.0" type="github">
  <diagram name="Page-1" id="2ca16b54-16f6-2749-3443-fa8db7711227">
    <mxGraphModel dx="1434" dy="718" grid="1" gridSize="10" guides="1" tooltips="1" connect="1" arrows="1" fold="1" page="1" pageScale="1" pageWidth="1100" pageHeight="850" background="none" math="0" shadow="0">
      <root>
        <mxCell id="0" />
        <mxCell id="1" parent="0" />
        <mxCell id="xfEO5K1NVg2OAoUf7Xs4-10" value="Empresa" style="swimlane;fontStyle=0;childLayout=stackLayout;horizontal=1;startSize=30;horizontalStack=0;resizeParent=1;resizeParentMax=0;resizeLast=0;collapsible=1;marginBottom=0;whiteSpace=wrap;html=1;" vertex="1" parent="1">
          <mxGeometry x="150" y="80" width="140" height="120" as="geometry" />
        </mxCell>
        <mxCell id="xfEO5K1NVg2OAoUf7Xs4-11" value="&lt;div&gt;CNPJ&lt;/div&gt;" style="text;strokeColor=none;fillColor=none;align=left;verticalAlign=middle;spacingLeft=4;spacingRight=4;overflow=hidden;points=[[0,0.5],[1,0.5]];portConstraint=eastwest;rotatable=0;whiteSpace=wrap;html=1;" vertex="1" parent="xfEO5K1NVg2OAoUf7Xs4-10">
          <mxGeometry y="30" width="140" height="30" as="geometry" />
        </mxCell>
        <mxCell id="xfEO5K1NVg2OAoUf7Xs4-12" value="nome" style="text;strokeColor=none;fillColor=none;align=left;verticalAlign=middle;spacingLeft=4;spacingRight=4;overflow=hidden;points=[[0,0.5],[1,0.5]];portConstraint=eastwest;rotatable=0;whiteSpace=wrap;html=1;" vertex="1" parent="xfEO5K1NVg2OAoUf7Xs4-10">
          <mxGeometry y="60" width="140" height="30" as="geometry" />
        </mxCell>
        <mxCell id="xfEO5K1NVg2OAoUf7Xs4-13" value="endereço" style="text;strokeColor=none;fillColor=none;align=left;verticalAlign=middle;spacingLeft=4;spacingRight=4;overflow=hidden;points=[[0,0.5],[1,0.5]];portConstraint=eastwest;rotatable=0;whiteSpace=wrap;html=1;" vertex="1" parent="xfEO5K1NVg2OAoUf7Xs4-10">
          <mxGeometry y="90" width="140" height="30" as="geometry" />
        </mxCell>
        <mxCell id="xfEO5K1NVg2OAoUf7Xs4-14" value="Empregados" style="swimlane;fontStyle=0;childLayout=stackLayout;horizontal=1;startSize=30;horizontalStack=0;resizeParent=1;resizeParentMax=0;resizeLast=0;collapsible=1;marginBottom=0;whiteSpace=wrap;html=1;" vertex="1" parent="1">
          <mxGeometry x="320" y="200" width="140" height="140" as="geometry" />
        </mxCell>
        <mxCell id="xfEO5K1NVg2OAoUf7Xs4-15" value="&lt;div&gt;id&lt;/div&gt;&lt;div&gt;nome&lt;br&gt;&lt;/div&gt;" style="text;strokeColor=none;fillColor=none;align=left;verticalAlign=middle;spacingLeft=4;spacingRight=4;overflow=hidden;points=[[0,0.5],[1,0.5]];portConstraint=eastwest;rotatable=0;whiteSpace=wrap;html=1;" vertex="1" parent="xfEO5K1NVg2OAoUf7Xs4-14">
          <mxGeometry y="30" width="140" height="30" as="geometry" />
        </mxCell>
        <mxCell id="xfEO5K1NVg2OAoUf7Xs4-19" style="edgeStyle=orthogonalEdgeStyle;rounded=0;orthogonalLoop=1;jettySize=auto;html=1;exitX=1;exitY=0.5;exitDx=0;exitDy=0;entryX=1;entryY=0.5;entryDx=0;entryDy=0;endArrow=ERone;endFill=0;startArrow=ERmany;startFill=0;" edge="1" parent="xfEO5K1NVg2OAoUf7Xs4-14" source="xfEO5K1NVg2OAoUf7Xs4-16" target="xfEO5K1NVg2OAoUf7Xs4-17">
          <mxGeometry relative="1" as="geometry">
            <mxPoint x="250" y="120" as="targetPoint" />
            <Array as="points">
              <mxPoint x="190" y="75" />
              <mxPoint x="190" y="115" />
            </Array>
          </mxGeometry>
        </mxCell>
        <mxCell id="xfEO5K1NVg2OAoUf7Xs4-16" value="&lt;div&gt;cargo&lt;/div&gt;&lt;div&gt;plano comércial&lt;br&gt;&lt;/div&gt;" style="text;strokeColor=none;fillColor=none;align=left;verticalAlign=middle;spacingLeft=4;spacingRight=4;overflow=hidden;points=[[0,0.5],[1,0.5]];portConstraint=eastwest;rotatable=0;whiteSpace=wrap;html=1;" vertex="1" parent="xfEO5K1NVg2OAoUf7Xs4-14">
          <mxGeometry y="60" width="140" height="30" as="geometry" />
        </mxCell>
        <mxCell id="xfEO5K1NVg2OAoUf7Xs4-17" value="&lt;div&gt;chefe_id&lt;/div&gt;&lt;div&gt;formação&lt;/div&gt;&lt;div&gt;cronograma&lt;br&gt;&lt;/div&gt;" style="text;strokeColor=none;fillColor=none;align=left;verticalAlign=middle;spacingLeft=4;spacingRight=4;overflow=hidden;points=[[0,0.5],[1,0.5]];portConstraint=eastwest;rotatable=0;whiteSpace=wrap;html=1;" vertex="1" parent="xfEO5K1NVg2OAoUf7Xs4-14">
          <mxGeometry y="90" width="140" height="50" as="geometry" />
        </mxCell>
        <mxCell id="xfEO5K1NVg2OAoUf7Xs4-18" style="edgeStyle=orthogonalEdgeStyle;rounded=0;orthogonalLoop=1;jettySize=auto;html=1;exitX=1;exitY=0.5;exitDx=0;exitDy=0;endArrow=ERone;endFill=0;startArrow=ERmany;startFill=0;" edge="1" parent="1" source="xfEO5K1NVg2OAoUf7Xs4-12" target="xfEO5K1NVg2OAoUf7Xs4-14">
          <mxGeometry relative="1" as="geometry" />
        </mxCell>
        <mxCell id="xfEO5K1NVg2OAoUf7Xs4-20" value="&lt;div&gt;chefia&lt;/div&gt;" style="text;html=1;align=center;verticalAlign=middle;resizable=0;points=[];autosize=1;strokeColor=none;fillColor=none;" vertex="1" parent="1">
          <mxGeometry x="501" y="280" width="60" height="30" as="geometry" />
        </mxCell>
        <mxCell id="xfEO5K1NVg2OAoUf7Xs4-21" value="orgão" style="swimlane;fontStyle=0;childLayout=stackLayout;horizontal=1;startSize=30;horizontalStack=0;resizeParent=1;resizeParentMax=0;resizeLast=0;collapsible=1;marginBottom=0;whiteSpace=wrap;html=1;" vertex="1" parent="1">
          <mxGeometry x="600" y="80" width="140" height="90" as="geometry" />
        </mxCell>
        <mxCell id="xfEO5K1NVg2OAoUf7Xs4-22" value="chefe_id" style="text;strokeColor=none;fillColor=none;align=left;verticalAlign=middle;spacingLeft=4;spacingRight=4;overflow=hidden;points=[[0,0.5],[1,0.5]];portConstraint=eastwest;rotatable=0;whiteSpace=wrap;html=1;" vertex="1" parent="xfEO5K1NVg2OAoUf7Xs4-21">
          <mxGeometry y="30" width="140" height="30" as="geometry" />
        </mxCell>
        <mxCell id="xfEO5K1NVg2OAoUf7Xs4-23" value="empregados_id" style="text;strokeColor=none;fillColor=none;align=left;verticalAlign=middle;spacingLeft=4;spacingRight=4;overflow=hidden;points=[[0,0.5],[1,0.5]];portConstraint=eastwest;rotatable=0;whiteSpace=wrap;html=1;" vertex="1" parent="xfEO5K1NVg2OAoUf7Xs4-21">
          <mxGeometry y="60" width="140" height="30" as="geometry" />
        </mxCell>
        <mxCell id="xfEO5K1NVg2OAoUf7Xs4-25" style="edgeStyle=orthogonalEdgeStyle;rounded=0;orthogonalLoop=1;jettySize=auto;html=1;exitX=1;exitY=0.5;exitDx=0;exitDy=0;endArrow=ERone;endFill=0;startArrow=ERmany;startFill=0;" edge="1" parent="1" source="xfEO5K1NVg2OAoUf7Xs4-11">
          <mxGeometry relative="1" as="geometry">
            <mxPoint x="600" y="125" as="targetPoint" />
          </mxGeometry>
        </mxCell>
        <mxCell id="xfEO5K1NVg2OAoUf7Xs4-36" style="edgeStyle=orthogonalEdgeStyle;rounded=0;orthogonalLoop=1;jettySize=auto;html=1;exitX=1;exitY=0.5;exitDx=0;exitDy=0;endArrow=ERone;endFill=0;startArrow=ERmany;startFill=0;" edge="1" parent="1" source="xfEO5K1NVg2OAoUf7Xs4-26">
          <mxGeometry relative="1" as="geometry">
            <mxPoint x="410" y="450" as="targetPoint" />
          </mxGeometry>
        </mxCell>
        <mxCell id="xfEO5K1NVg2OAoUf7Xs4-26" value="obras" style="swimlane;fontStyle=0;childLayout=stackLayout;horizontal=1;startSize=30;horizontalStack=0;resizeParent=1;resizeParentMax=0;resizeLast=0;collapsible=1;marginBottom=0;whiteSpace=wrap;html=1;" vertex="1" parent="1">
          <mxGeometry x="140" y="390" width="140" height="120" as="geometry" />
        </mxCell>
        <mxCell id="xfEO5K1NVg2OAoUf7Xs4-27" value="&lt;div&gt;custo orçado&lt;/div&gt;&lt;div&gt;prazo de execução&lt;br&gt;&lt;/div&gt;" style="text;strokeColor=none;fillColor=none;align=left;verticalAlign=middle;spacingLeft=4;spacingRight=4;overflow=hidden;points=[[0,0.5],[1,0.5]];portConstraint=eastwest;rotatable=0;whiteSpace=wrap;html=1;" vertex="1" parent="xfEO5K1NVg2OAoUf7Xs4-26">
          <mxGeometry y="30" width="140" height="30" as="geometry" />
        </mxCell>
        <mxCell id="xfEO5K1NVg2OAoUf7Xs4-28" value="&lt;div&gt;responsável&lt;/div&gt;&lt;div&gt;atividades&lt;br&gt;&lt;/div&gt;" style="text;strokeColor=none;fillColor=none;align=left;verticalAlign=middle;spacingLeft=4;spacingRight=4;overflow=hidden;points=[[0,0.5],[1,0.5]];portConstraint=eastwest;rotatable=0;whiteSpace=wrap;html=1;" vertex="1" parent="xfEO5K1NVg2OAoUf7Xs4-26">
          <mxGeometry y="60" width="140" height="30" as="geometry" />
        </mxCell>
        <mxCell id="xfEO5K1NVg2OAoUf7Xs4-29" value="&lt;div&gt;materiais&lt;/div&gt;&lt;div&gt;cronograma&lt;br&gt;&lt;/div&gt;" style="text;strokeColor=none;fillColor=none;align=left;verticalAlign=middle;spacingLeft=4;spacingRight=4;overflow=hidden;points=[[0,0.5],[1,0.5]];portConstraint=eastwest;rotatable=0;whiteSpace=wrap;html=1;" vertex="1" parent="xfEO5K1NVg2OAoUf7Xs4-26">
          <mxGeometry y="90" width="140" height="30" as="geometry" />
        </mxCell>
        <mxCell id="xfEO5K1NVg2OAoUf7Xs4-30" style="edgeStyle=orthogonalEdgeStyle;rounded=0;orthogonalLoop=1;jettySize=auto;html=1;exitX=0.5;exitY=1;exitDx=0;exitDy=0;endArrow=ERone;endFill=0;startArrow=ERmany;startFill=0;" edge="1" parent="1" source="xfEO5K1NVg2OAoUf7Xs4-10">
          <mxGeometry relative="1" as="geometry">
            <mxPoint x="220" y="390" as="targetPoint" />
          </mxGeometry>
        </mxCell>
        <mxCell id="xfEO5K1NVg2OAoUf7Xs4-31" value="Administração" style="swimlane;fontStyle=0;childLayout=stackLayout;horizontal=1;startSize=30;horizontalStack=0;resizeParent=1;resizeParentMax=0;resizeLast=0;collapsible=1;marginBottom=0;whiteSpace=wrap;html=1;" vertex="1" parent="1">
          <mxGeometry x="410" y="380" width="140" height="150" as="geometry" />
        </mxCell>
        <mxCell id="xfEO5K1NVg2OAoUf7Xs4-32" value="relatorios" style="text;strokeColor=none;fillColor=none;align=left;verticalAlign=middle;spacingLeft=4;spacingRight=4;overflow=hidden;points=[[0,0.5],[1,0.5]];portConstraint=eastwest;rotatable=0;whiteSpace=wrap;html=1;" vertex="1" parent="xfEO5K1NVg2OAoUf7Xs4-31">
          <mxGeometry y="30" width="140" height="30" as="geometry" />
        </mxCell>
        <mxCell id="xfEO5K1NVg2OAoUf7Xs4-33" value="empregados" style="text;strokeColor=none;fillColor=none;align=left;verticalAlign=middle;spacingLeft=4;spacingRight=4;overflow=hidden;points=[[0,0.5],[1,0.5]];portConstraint=eastwest;rotatable=0;whiteSpace=wrap;html=1;" vertex="1" parent="xfEO5K1NVg2OAoUf7Xs4-31">
          <mxGeometry y="60" width="140" height="30" as="geometry" />
        </mxCell>
        <mxCell id="xfEO5K1NVg2OAoUf7Xs4-51" value="cronograma" style="text;strokeColor=none;fillColor=none;align=left;verticalAlign=middle;spacingLeft=4;spacingRight=4;overflow=hidden;points=[[0,0.5],[1,0.5]];portConstraint=eastwest;rotatable=0;whiteSpace=wrap;html=1;" vertex="1" parent="xfEO5K1NVg2OAoUf7Xs4-31">
          <mxGeometry y="90" width="140" height="30" as="geometry" />
        </mxCell>
        <mxCell id="xfEO5K1NVg2OAoUf7Xs4-34" value="custos orçado" style="text;strokeColor=none;fillColor=none;align=left;verticalAlign=middle;spacingLeft=4;spacingRight=4;overflow=hidden;points=[[0,0.5],[1,0.5]];portConstraint=eastwest;rotatable=0;whiteSpace=wrap;html=1;" vertex="1" parent="xfEO5K1NVg2OAoUf7Xs4-31">
          <mxGeometry y="120" width="140" height="30" as="geometry" />
        </mxCell>
        <mxCell id="xfEO5K1NVg2OAoUf7Xs4-37" value="produto" style="swimlane;fontStyle=0;childLayout=stackLayout;horizontal=1;startSize=30;horizontalStack=0;resizeParent=1;resizeParentMax=0;resizeLast=0;collapsible=1;marginBottom=0;whiteSpace=wrap;html=1;" vertex="1" parent="1">
          <mxGeometry x="140" y="620" width="140" height="90" as="geometry" />
        </mxCell>
        <mxCell id="xfEO5K1NVg2OAoUf7Xs4-38" value="materiais" style="text;strokeColor=none;fillColor=none;align=left;verticalAlign=middle;spacingLeft=4;spacingRight=4;overflow=hidden;points=[[0,0.5],[1,0.5]];portConstraint=eastwest;rotatable=0;whiteSpace=wrap;html=1;" vertex="1" parent="xfEO5K1NVg2OAoUf7Xs4-37">
          <mxGeometry y="30" width="140" height="30" as="geometry" />
        </mxCell>
        <mxCell id="xfEO5K1NVg2OAoUf7Xs4-39" value="serviços" style="text;strokeColor=none;fillColor=none;align=left;verticalAlign=middle;spacingLeft=4;spacingRight=4;overflow=hidden;points=[[0,0.5],[1,0.5]];portConstraint=eastwest;rotatable=0;whiteSpace=wrap;html=1;" vertex="1" parent="xfEO5K1NVg2OAoUf7Xs4-37">
          <mxGeometry y="60" width="140" height="30" as="geometry" />
        </mxCell>
        <mxCell id="xfEO5K1NVg2OAoUf7Xs4-45" value="fornecedor" style="swimlane;fontStyle=0;childLayout=stackLayout;horizontal=1;startSize=30;horizontalStack=0;resizeParent=1;resizeParentMax=0;resizeLast=0;collapsible=1;marginBottom=0;whiteSpace=wrap;html=1;" vertex="1" parent="1">
          <mxGeometry x="410" y="620" width="140" height="90" as="geometry" />
        </mxCell>
        <mxCell id="xfEO5K1NVg2OAoUf7Xs4-46" value="data" style="text;strokeColor=none;fillColor=none;align=left;verticalAlign=middle;spacingLeft=4;spacingRight=4;overflow=hidden;points=[[0,0.5],[1,0.5]];portConstraint=eastwest;rotatable=0;whiteSpace=wrap;html=1;" vertex="1" parent="xfEO5K1NVg2OAoUf7Xs4-45">
          <mxGeometry y="30" width="140" height="30" as="geometry" />
        </mxCell>
        <mxCell id="xfEO5K1NVg2OAoUf7Xs4-47" value="preço" style="text;strokeColor=none;fillColor=none;align=left;verticalAlign=middle;spacingLeft=4;spacingRight=4;overflow=hidden;points=[[0,0.5],[1,0.5]];portConstraint=eastwest;rotatable=0;whiteSpace=wrap;html=1;" vertex="1" parent="xfEO5K1NVg2OAoUf7Xs4-45">
          <mxGeometry y="60" width="140" height="30" as="geometry" />
        </mxCell>
        <mxCell id="xfEO5K1NVg2OAoUf7Xs4-49" style="edgeStyle=orthogonalEdgeStyle;rounded=0;orthogonalLoop=1;jettySize=auto;html=1;exitX=0.5;exitY=1;exitDx=0;exitDy=0;entryX=0.5;entryY=0;entryDx=0;entryDy=0;startArrow=ERone;startFill=0;endArrow=ERmany;endFill=0;" edge="1" parent="1" source="xfEO5K1NVg2OAoUf7Xs4-26" target="xfEO5K1NVg2OAoUf7Xs4-37">
          <mxGeometry relative="1" as="geometry" />
        </mxCell>
        <mxCell id="xfEO5K1NVg2OAoUf7Xs4-50" style="edgeStyle=orthogonalEdgeStyle;rounded=0;orthogonalLoop=1;jettySize=auto;html=1;exitX=0.986;exitY=0.067;exitDx=0;exitDy=0;entryX=0;entryY=0.067;entryDx=0;entryDy=0;endArrow=ERmany;endFill=0;startArrow=ERone;startFill=0;exitPerimeter=0;entryPerimeter=0;" edge="1" parent="1" source="xfEO5K1NVg2OAoUf7Xs4-39" target="xfEO5K1NVg2OAoUf7Xs4-47">
          <mxGeometry relative="1" as="geometry" />
        </mxCell>
      </root>
    </mxGraphModel>
  </diagram>
</mxfile>
